<svg width="20" height="21" viewBox="0 0 20 21" fill="none" xmlns="http://www.w3.org/2000/svg">
<g id="Icon/close">
<path id="Union" d="M9.47029 10.8536L9.82384 10.5001L9.47029 10.1465L7.55362 8.22986C7.5321 8.20833 7.51882 8.1776 7.51882 8.14175C7.51882 8.1059 7.5321 8.07516 7.55362 8.05364C7.57515 8.03211 7.60588 8.01883 7.64174 8.01883C7.67759 8.01883 7.70832 8.03211 7.72985 8.05364L9.64652 9.9703L10.0001 10.3239L10.3536 9.9703L12.2703 8.05364C12.2918 8.03211 12.3226 8.01883 12.3584 8.01883C12.3943 8.01883 12.425 8.03211 12.4465 8.05364C12.468 8.07516 12.4813 8.1059 12.4813 8.14175C12.4813 8.1776 12.468 8.20833 12.4465 8.22986L10.5298 10.1465L10.1763 10.5001L10.5298 10.8536L12.4465 12.7703C12.468 12.7918 12.4813 12.8226 12.4813 12.8584C12.4813 12.8943 12.468 12.925 12.4465 12.9465C12.4318 12.9612 12.4178 12.9697 12.4049 12.9748C12.3916 12.9802 12.3761 12.9834 12.3584 12.9834C12.3407 12.9834 12.3252 12.9802 12.3119 12.9748C12.299 12.9697 12.285 12.9612 12.2703 12.9465L10.3536 11.0299L10.0001 10.6763L9.64652 11.0299L7.72985 12.9465L7.72375 12.9526L7.71787 12.9589C7.7146 12.9624 7.70752 12.9684 7.6936 12.9739C7.67899 12.9797 7.66065 12.9834 7.64174 12.9834C7.62405 12.9834 7.60853 12.9802 7.59521 12.9748C7.58235 12.9697 7.5683 12.9612 7.55362 12.9465C7.5321 12.925 7.51882 12.8943 7.51882 12.8584C7.51882 12.8226 7.5321 12.7918 7.55362 12.7703L9.47029 10.8536ZM10.0001 18.9584C5.33456 18.9584 1.54175 15.1656 1.54175 10.5001C1.54175 5.83456 5.33456 2.04175 10.0001 2.04175C14.6656 2.04175 18.4584 5.83456 18.4584 10.5001C18.4584 15.1656 14.6656 18.9584 10.0001 18.9584ZM10.0001 2.29175C5.47394 2.29175 1.79175 5.97394 1.79175 10.5001C1.79175 15.0262 5.47394 18.7084 10.0001 18.7084C14.5262 18.7084 18.2084 15.0262 18.2084 10.5001C18.2084 5.97394 14.5262 2.29175 10.0001 2.29175Z" fill="white" stroke="white"/>
</g>
</svg>
