<svg width="22" height="22" viewBox="0 0 22 22" fill="none" xmlns="http://www.w3.org/2000/svg">
<g id="Group">
<path id="Vector" d="M9.74699 0.890574C7.18313 1.18937 4.64819 2.61587 2.99036 4.67852C2.26747 5.58455 1.40964 7.24238 1.12048 8.29298C0.493974 10.6352 0.715661 13.1412 1.75662 15.4255L2.09397 16.1773L1.38072 18.7701C0.985541 20.1966 0.667468 21.3725 0.686745 21.3918C0.696384 21.4014 1.92048 21.093 3.40482 20.7074L6.10361 20.0038L6.5759 20.2255C10.6434 22.0665 15.2699 21.2665 18.3349 18.1918C21.4193 15.0978 22.2 10.5099 20.3012 6.60624C18.3735 2.62551 14.1904 0.370092 9.74699 0.890574ZM8.23373 6.2978C8.45542 6.57732 9.31325 8.81347 9.26506 8.97732C9.23614 9.07371 9.01446 9.40142 8.78313 9.70985L8.35904 10.2496L8.57108 10.6352C8.89879 11.2327 10.1133 12.4761 10.7783 12.9099C11.4337 13.3339 12.2819 13.7002 12.4651 13.6327C12.5229 13.6135 12.8217 13.2954 13.1301 12.9195C13.4289 12.5532 13.7181 12.2544 13.7855 12.2544C13.8434 12.2544 14.4699 12.5339 15.1735 12.8809C16.6096 13.5749 16.5904 13.5556 16.3012 14.5388C16.0313 15.4448 15.0675 16.0424 13.8916 16.0424C12.6771 16.0424 10.5952 15.2135 9.32289 14.24C8.10843 13.2954 6.7012 11.5894 6.05542 10.2496C5.40964 8.90021 5.56385 7.55081 6.46024 6.60624C6.86506 6.19178 6.88434 6.18214 7.5012 6.18214C7.88675 6.18214 8.16626 6.23033 8.23373 6.2978Z" fill="white"/>
</g>
</svg>
