<svg width="20" height="20" viewBox="0 0 20 20" fill="none" xmlns="http://www.w3.org/2000/svg">
<g id="Icon/hamburger menu">
<path id="Union" d="M17.5 5.95825H2.5C2.46985 5.95825 2.43857 5.94597 2.41293 5.92032C2.38728 5.89468 2.375 5.8634 2.375 5.83325C2.375 5.8031 2.38728 5.77182 2.41293 5.74618C2.43857 5.72054 2.46985 5.70825 2.5 5.70825H17.5C17.5301 5.70825 17.5614 5.72054 17.5871 5.74618C17.6127 5.77182 17.625 5.8031 17.625 5.83325C17.625 5.8634 17.6127 5.89468 17.5871 5.92032C17.5614 5.94597 17.5301 5.95825 17.5 5.95825ZM17.5 10.1249H2.5C2.46985 10.1249 2.43857 10.1126 2.41293 10.087C2.38728 10.0613 2.375 10.0301 2.375 9.99992C2.375 9.96977 2.38728 9.93849 2.41293 9.91285C2.43857 9.8872 2.46985 9.87492 2.5 9.87492H17.5C17.5301 9.87492 17.5614 9.8872 17.5871 9.91285C17.6127 9.93849 17.625 9.96977 17.625 9.99992C17.625 10.0301 17.6127 10.0613 17.5871 10.087C17.5614 10.1126 17.5301 10.1249 17.5 10.1249ZM17.5 14.2916H2.5C2.46985 14.2916 2.43857 14.2793 2.41293 14.2537C2.38728 14.228 2.375 14.1967 2.375 14.1666C2.375 14.1364 2.38728 14.1052 2.41293 14.0795C2.43857 14.0539 2.46985 14.0416 2.5 14.0416H17.5C17.5301 14.0416 17.5614 14.0539 17.5871 14.0795C17.6127 14.1052 17.625 14.1364 17.625 14.1666C17.625 14.1967 17.6127 14.228 17.5871 14.2537C17.5614 14.2793 17.5301 14.2916 17.5 14.2916Z" fill="white" stroke="white"/>
</g>
</svg>
